HIERARCHY
ROOT SimulationBone
{
	OFFSET 0.000000 0.000000 0.000000
	CHANNELS 6 Xposition Yposition Zposition Zrotation Yrotation Xrotation 
	JOINT Hips
	{
		OFFSET 0.000000 0.000000 0.000000
		CHANNELS 6 Xposition Yposition Zposition Zrotation Yrotation Xrotation 
		JOINT LeftUpLeg
		{
			OFFSET 0.103462 1.857844 10.548508
			CHANNELS 3 Zrotation Yrotation Xrotation
			JOINT LeftLeg
			{
				OFFSET 43.500000 -0.000046 -0.000008
				CHANNELS 3 Zrotation Yrotation Xrotation
				JOINT LeftFoot
				{
					OFFSET 42.372192 0.000000 0.000004
					CHANNELS 3 Zrotation Yrotation Xrotation
					JOINT LeftToe
					{
						OFFSET 17.299997 -0.000003 0.000018
						CHANNELS 3 Zrotation Yrotation Xrotation
						End Site
						{
							OFFSET 0.000000 0.000000 0.000000
						}
					}
				}
			}
		}
		JOINT RightUpLeg
		{
			OFFSET 0.103459 1.857830 -10.548515
			CHANNELS 3 Zrotation Yrotation Xrotation
			JOINT RightLeg
			{
				OFFSET 43.500046 -0.000034 -0.000006
				CHANNELS 3 Zrotation Yrotation Xrotation
				JOINT RightFoot
				{
					OFFSET 42.372253 0.000015 -0.000006
					CHANNELS 3 Zrotation Yrotation Xrotation
					JOINT RightToe
					{
						OFFSET 17.299969 -0.000012 0.000010
						CHANNELS 3 Zrotation Yrotation Xrotation
						End Site
						{
							OFFSET 0.000000 0.000000 0.000000
						}
					}
				}
			}
		}
		JOINT Spine
		{
			OFFSET 6.901964 -2.603727 0.000001
			CHANNELS 3 Zrotation Yrotation Xrotation
			JOINT Spine1
			{
				OFFSET 12.588105 -0.000009 0.000006
				CHANNELS 3 Zrotation Yrotation Xrotation
				JOINT Spine2
				{
					OFFSET 12.343197 0.000007 -0.000002
					CHANNELS 3 Zrotation Yrotation Xrotation
					JOINT Neck
					{
						OFFSET 25.832897 0.000002 -0.000001
						CHANNELS 3 Zrotation Yrotation Xrotation
						JOINT Head
						{
							OFFSET 11.766611 0.000000 0.000004
							CHANNELS 3 Zrotation Yrotation Xrotation
							End Site
							{
								OFFSET 0.000000 0.000000 0.000000
							}
						}
					}
					JOINT LeftShoulder
					{
						OFFSET 19.745911 -1.480377 6.000110
						CHANNELS 3 Zrotation Yrotation Xrotation
						JOINT LeftArm
						{
							OFFSET 11.284108 -0.000006 -0.000027
							CHANNELS 3 Zrotation Yrotation Xrotation
							JOINT LeftForeArm
							{
								OFFSET 33.000046 -0.000010 0.000031
								CHANNELS 3 Zrotation Yrotation Xrotation
								JOINT LeftHand
								{
									OFFSET 25.200014 0.000009 0.000001
									CHANNELS 3 Zrotation Yrotation Xrotation
									End Site
									{
										OFFSET 0.000000 0.000000 0.000000
									}
								}
							}
						}
					}
					JOINT RightShoulder
					{
						OFFSET 19.746105 -1.480358 -6.000092
						CHANNELS 3 Zrotation Yrotation Xrotation
						JOINT RightArm
						{
							OFFSET 11.284138 -0.000011 -0.000001
							CHANNELS 3 Zrotation Yrotation Xrotation
							JOINT RightForeArm
							{
								OFFSET 33.000088 0.000023 -0.000007
								CHANNELS 3 Zrotation Yrotation Xrotation
								JOINT RightHand
								{
									OFFSET 25.199776 0.000128 0.000427
									CHANNELS 3 Zrotation Yrotation Xrotation
									End Site
									{
										OFFSET 0.000000 0.000000 0.000000
									}
								}
							}
						}
					}
				}
			}
		}
	}
}
MOTION
Frames: 6
Frame Time: 0.016667
200.451562 0.000000 -198.118879 0.000000 125.291303 0.000000 -0.367779 90.032671 -0.699257 90.984691 -2.119819 -179.953929 169.917924 6.288124 176.171926 -24.440026 1.788813 -6.610372 88.278605 4.438565 -0.375296 21.454557 0.003108 0.000017 151.976362 9.530069 -172.677145 -77.369691 -2.281397 5.204163 70.592954 -1.386289 6.779422 21.454555 -0.003105 0.000004 6.454199 -0.601511 -0.058194 2.896389 -1.201349 -0.131133 2.578221 -1.202265 -0.123883 12.266383 -5.558370 5.468101 -9.817167 -0.157972 5.138496 -167.884992 -77.315609 -13.804596 10.531640 60.186018 28.460219 -44.622332 -14.245836 1.564514 6.340711 -6.946867 4.939617 -156.391457 82.204123 25.462057 -22.672069 -64.955787 -24.573921 -32.678429 11.348578 -1.048118 8.086981 2.054548 -1.457445 
199.534248 0.000000 -199.445473 0.000000 125.616930 0.000000 -0.466880 90.033737 -0.663211 90.746233 -1.969509 -179.912394 170.667508 6.139892 176.334625 -24.491849 1.817409 -6.456307 89.169020 4.300799 -0.519224 21.454558 0.003111 0.000017 150.166530 9.144894 -172.978352 -75.646461 -1.792690 5.077430 71.260988 -1.328463 6.850870 21.454563 -0.003100 0.000003 6.416252 -0.558388 -0.195995 2.821762 -1.111875 -0.405285 2.503606 -1.114448 -0.398571 12.090190 -5.462281 5.415372 -9.505777 -0.322512 5.128398 -168.535668 -77.446444 -13.140520 9.702414 60.069497 27.197201 -45.534087 -14.451796 1.605125 6.378368 -7.204605 4.946508 -154.912129 82.112321 26.961915 -19.766080 -65.700481 -26.804387 -31.852552 10.615482 -0.982696 8.361389 2.869926 -0.374866 
198.615412 0.000000 -200.796347 0.000000 125.966701 0.000000 -0.609120 89.986341 -0.640856 90.481398 -1.881070 -179.956234 171.333200 6.023946 176.434797 -24.627238 1.831699 -6.309912 90.078443 4.175447 -0.636814 21.454557 0.003108 0.000016 148.572083 8.750726 -173.452845 -73.198924 -1.301767 4.771516 71.869793 -1.000341 7.361282 21.454560 -0.003094 0.000003 6.384347 -0.525098 -0.318402 2.758920 -1.042565 -0.648990 2.440776 -1.046602 -0.642685 11.839687 -5.335693 5.371459 -9.344002 -0.555175 5.147432 -169.121350 -77.560640 -12.542948 8.866070 59.924252 25.919692 -46.514460 -14.623203 1.645729 6.364762 -7.076292 5.240413 -153.686083 82.004785 28.206022 -16.738154 -66.253194 -29.289875 -30.975708 9.876205 -0.915800 8.626098 3.957167 1.010950 
197.698538 0.000000 -202.173043 0.000000 126.337641 0.000000 -0.760626 89.875076 -0.631057 90.201738 -1.902466 179.956431 171.939712 5.992999 176.546812 -24.864745 1.814463 -6.193762 91.022658 4.078919 -0.714845 21.454557 0.003104 0.000016 147.192939 8.413695 -173.857575 -70.144437 -0.997152 4.426546 72.362500 -0.542291 8.141935 21.454553 -0.003091 0.000002 6.353842 -0.516221 -0.431910 2.698848 -1.022396 -0.875511 2.380723 -1.027796 -0.869319 11.552697 -5.120782 5.331363 -9.312934 -0.830965 5.192671 -169.771167 -77.721421 -11.880281 8.124059 59.760820 24.749312 -47.481575 -14.727676 1.682479 6.234075 -6.943082 5.715530 -152.662060 81.848990 29.247102 -13.553283 -66.610570 -32.178016 -30.157186 9.237829 -0.859249 8.966868 4.927439 3.301886 
196.784508 0.000000 -203.573060 0.000000 126.726045 0.000000 -0.886956 89.700656 -0.629824 89.915861 -2.044581 179.867634 172.529524 6.067754 176.740061 -25.177776 1.761077 -6.125699 91.998604 4.022133 -0.754328 21.454557 0.003106 0.000016 146.026161 8.184299 -174.013835 -66.592477 -0.978020 4.184204 72.685608 -0.156703 8.874761 21.454549 -0.003094 0.000001 6.318356 -0.538616 -0.542392 2.629069 -1.064992 -1.096658 2.310975 -1.071731 -1.090209 11.270556 -4.788626 5.291238 -9.376838 -1.102731 5.253206 -170.654346 -77.957192 -10.980339 7.593849 59.574949 23.829212 -48.365090 -14.754843 1.712273 5.936637 -7.185843 6.183689 -151.765947 81.629539 30.160698 -10.193287 -66.783309 -35.511319 -29.484743 8.777945 -0.817604 9.443019 5.369091 6.857143 
195.871698 0.000000 -204.990435 0.000000 127.129075 0.000000 -0.997488 89.529587 -0.643050 89.624371 -2.161354 179.766259 173.188790 6.125402 176.985160 -25.374767 1.719110 -6.088668 92.922571 3.985111 -0.814862 21.454558 0.003109 0.000017 145.135508 7.923402 -174.194440 -62.435257 -0.880593 4.070855 72.653855 -0.051233 8.997587 21.454551 -0.003097 -0.000001 6.278340 -0.561223 -0.643898 2.550232 -1.108392 -1.299790 2.232170 -1.116362 -1.293080 11.008545 -4.429596 5.265214 -9.502857 -1.294884 5.312621 -171.766634 -78.199002 -9.847628 7.246287 59.362210 23.190487 -49.162956 -14.779252 1.738766 5.549325 -7.705610 6.437396 -150.948242 81.401148 30.995094 -6.834303 -66.844203 -38.722188 -28.845626 8.373255 -0.778163 9.937067 5.256727 10.310159 
